#!OML:ASF H:\Terrain\Patient Classification 1\Takeo\Monday\TakeoMonday.ASF
:FULLY-SPECIFIED
:DEGREES
2040
root 11.4949 16.3656 -3.21718 169.526 -84.3129 -166.378
lowerback 19.6968 -3.02207 -15.6691
upperback 11.9934 -7.51384 -1.00425
thorax 4.27407 -5.19875 8.67343
lowerneck -13.9134 19.0783 -3.93998
upperneck -10.2341 24.6929 -30.9224
head 2.90106 11.7343 -6.5977
rclavicle 5.725e-014 1.11319e-014
rhumerus 26.3693 31.6094 -81.188
rradius 48.8497
rwrist 22.6827
rhand -21.4904 -2.84126
rfingers 7.12502
rthumb 4.90083 -32.7646
lclavicle 5.725e-014 1.11319e-014
lhumerus 53.7566 16.484 132.938
lradius 16.6407
lwrist 40.2423
lhand -1.23792 33.4798
lfingers 7.12502
lthumb 24.4041 421.946
rfemur -38.0635 34.0949 13.2769
rtibia 51.7234
rfoot -17.8078 7.33277
rtoes -14.3427
lfemur -26.9308 48.088 -10.1834
ltibia 58.5353
lfoot -29.0624 26.9438
ltoes 16.6002
2041
root 11.496 16.3693 -3.22263 170.732 -84.4463 -167.581
lowerback 19.6583 -3.09593 -15.5389
upperback 11.9529 -7.57824 -1.02279
thorax 4.23771 -5.21296 8.58836
lowerneck -13.9655 19.0951 -3.83124
upperneck -10.1011 24.762 -30.7572
head 2.94599 11.7503 -6.54161
rclavicle -3.18055e-015 -6.04305e-014
rhumerus 26.1702 32.1507 -81.2462
rradius 48.947
rwrist 22.4466
rhand -20.952 -3.2421
rfingers 7.12502
rthumb 5.4207 -33.1528
lclavicle -3.18055e-015 -6.04305e-014
lhumerus 53.2308 17.1286 132.853
lradius 17.4628
lwrist 40.1939
lhand -3.52056 31.8146
lfingers 7.12502
lthumb 22.2143 420.558
rfemur -38.0437 34.0232 13.121
rtibia 51.6643
rfoot -17.6877 7.31655
rtoes -13.7451
lfemur -26.9452 47.8518 -10.4007
ltibia 58.3559
lfoot -28.7352 27.1463
ltoes 15.7457
2042
root 11.4931 16.381 -3.22696 174.245 -84.6639 -171.244
lowerback 19.7148 -3.09978 -15.6104
upperback 11.9297 -7.60773 -1.19883
thorax 4.17202 -5.21591 8.44492
lowerneck -13.4009 19.1909 -3.11539
upperneck -10.3258 24.74 -30.8927
head 2.90347 11.8053 -6.70982
rclavicle 9.54166e-015 9.54166e-015
rhumerus 25.6455 32.492 -81.7688
rradius 49.0314
rwrist 22.2685
rhand -20.832 -2.84929
rfingers 7.12502
rthumb 5.53656 -32.757
lclavicle 9.54166e-015 9.54166e-015
lhumerus 53.5872 18.1686 133.38
lradius 16.6965
lwrist 39.1412
lhand -3.83524 33.1968
lfingers 7.12502
lthumb 21.9122 421.976
rfemur -37.7806 33.9528 12.8232
rtibia 51.6093
rfoot -17.6371 7.40936
rtoes -12.9035
lfemur -26.5977 47.5565 -10.6922
ltibia 58.0997
lfoot -28.8452 27.059
ltoes 17.0376
2043
root 11.4878 16.3947 -3.23634 176.711 -84.877 -173.643
lowerback 19.4948 -3.01641 -15.5481
upperback 11.935 -7.44572 -1.32593
thorax 4.21494 -5.12411 8.23252
lowerneck -12.8852 19.1928 -1.81958
upperneck -10.3528 24.6231 -31.4179
head 3.06377 11.7564 -7.04518
rclavicle 1.04958e-013 2.70347e-014
rhumerus 25.1569 32.5739 -82.0544
rradius 49.1723
rwrist 21.9314
rhand -20.7892 -2.62952
rfingers 7.12502
rthumb 5.57789 -32.5361
lclavicle 1.04958e-013 2.70347e-014
lhumerus 52.9721 17.8109 131.89
lradius 16.1692
lwrist 40.0625
lhand -4.08042 34.1998
lfingers 7.12502
lthumb 21.6767 423.006
rfemur -37.7756 33.904 12.539
rtibia 51.5399
rfoot -17.7377 7.57514
rtoes -12.9559
lfemur -26.6021 47.2798 -11.0652
ltibia 57.8317
lfoot -29.1198 26.9039
ltoes 17.3705
2044
root 11.4825 16.4028 -3.25041 175.574 -85.1433 -172.354
lowerback 19.2338 -2.95983 -15.2063
upperback 11.9498 -7.26052 -1.29764
thorax 4.26235 -5.01035 8.03431
lowerneck -12.3392 19.1426 -0.646431
upperneck -10.4198 24.4343 -32.0588
head 3.1998 11.6793 -7.42458
rclavicle -3.65764e-014 3.65764e-014
rhumerus 24.9836 32.7902 -81.7844
rradius 49.2886
rwrist 21.2456
rhand -20.6251 -2.81252
rfingers 7.12502
rthumb 5.73636 -32.7149
lclavicle -3.65764e-014 3.65764e-014
lhumerus 52.4187 17.7147 130.962
lradius 15.9739
lwrist 40.4866
lhand -3.73337 33.8485
lfingers 7.12502
lthumb 22.01 422.616
rfemur -37.8483 33.7962 12.5947
rtibia 51.4629
rfoot -17.9583 7.42318
rtoes -13.9793
lfemur -26.8578 47.1194 -11.1841
ltibia 57.6
lfoot -28.8796 27.0507
ltoes 16.4123
2045
root 11.4741 16.4079 -3.26856 173.091 -85.4234 -169.873
lowerback 19.1083 -2.94474 -14.7702
upperback 11.9417 -7.14063 -1.22167
thorax 4.22395 -4.91875 7.8609
lowerneck -11.7098 19.1088 -0.56692
upperneck -10.7481 24.2564 -31.8699
head 2.94999 11.7031 -7.47945
rclavicle -7.31528e-014 -6.04305e-014
rhumerus 24.6444 32.961 -81.8577
rradius 49.1654
rwrist 21.0561
rhand -20.8745 -1.96567
rfingers 7.12502
rthumb 5.49556 -31.8744
lclavicle -7.31528e-014 -6.04305e-014
lhumerus 51.8978 18.1688 130.683
lradius 16.1373
lwrist 40.5288
lhand -3.74554 33.9734
lfingers 7.12502
lthumb 21.9983 422.742
rfemur -37.6858 33.6587 12.9084
rtibia 51.3887
rfoot -18.1083 7.10945
rtoes -14.638
lfemur -26.8449 47.0939 -11.0042
ltibia 57.378
lfoot -28.4479 27.147
ltoes 15.0641
2046
root 11.4605 16.4177 -3.29217 174.89 -85.8005 -171.644
lowerback 18.8709 -2.90068 -14.6497
upperback 11.9031 -7.01361 -1.2103
thorax 4.2518 -4.84116 7.77535
lowerneck -11.5402 19.0524 -1.04149
upperneck -10.7198 24.2205 -31.0648
head 2.725 11.7411 -7.22662
rclavicle -1.11319e-014 -3.49861e-014
rhumerus 24.0982 32.8676 -82.3304
rradius 48.8388
rwrist 21.4187
rhand -21.1883 -1.10919
rfingers 7.12502
rthumb 5.1925 -31.0256
lclavicle -1.11319e-014 -3.49861e-014
lhumerus 51.1893 18.4308 130.314
lradius 16.2791
lwrist 40.725
lhand -4.46748 34.0343
lfingers 7.12502
lthumb 21.305 422.883
rfemur -37.5385 33.5388 12.8079
rtibia 51.3185
rfoot -18.1048 6.80141
rtoes -14.6819
lfemur -26.8162 46.9492 -11.2183
ltibia 57.0832
lfoot -28.2417 27.0538
ltoes 15.594
2047
root 11.4471 16.4413 -3.31219 179.955 -86.2827 -176.678
lowerback 18.6415 -2.78684 -14.6078
upperback 11.9021 -6.81211 -1.29789
thorax 4.29876 -4.73156 7.61566
lowerneck -11.9903 18.9474 -0.888314
upperneck -9.9126 24.3504 -30.4902
head 2.98589 11.6888 -6.98644
rclavicle 7.63333e-014 4.77083e-015
rhumerus 23.608 32.5596 -82.6947
rradius 48.6909
rwrist 21.5697
rhand -20.6617 -2.38681
rfingers 7.12502
rthumb 5.70094 -32.2901
lclavicle 7.63333e-014 4.77083e-015
lhumerus 50.2748 18.341 129.729
lradius 16.391
lwrist 41.1532
lhand -5.09046 33.5833
lfingers 7.12502
lthumb 20.7065 422.499
rfemur -37.357 33.3547 12.4768
rtibia 51.2314
rfoot -18.0417 6.35865
rtoes -14.7907
lfemur -26.76 46.6474 -11.6863
ltibia 56.6793
lfoot -27.9063 27.1565
ltoes 16.4703
2048
root 11.4398 16.4694 -3.32695 184.192 -86.7162 -180.966
lowerback 18.5643 -2.61025 -14.3163
upperback 11.8598 -6.51868 -1.49611
thorax 4.14164 -4.53828 7.21466
lowerneck -11.9152 18.7906 0.0980011
upperneck -9.34967 24.2441 -30.4401
head 3.25459 11.5658 -7.07478
rclavicle -1.74931e-014 1.06549e-013
rhumerus 22.8164 32.0777 -83.3217
rradius 48.6347
rwrist 21.5091
rhand -20.109 -3.84031
rfingers 7.12502
rthumb 6.23462 -33.7286
lclavicle -1.74931e-014 1.06549e-013
lhumerus 49.2362 18.47 129.3
lradius 16.4056
lwrist 41.1354
lhand -5.24414 33.0389
lfingers 7.12502
lthumb 20.5588 421.97
rfemur -37.0946 33.1963 12.3379
rtibia 51.1208
rfoot -18.1156 5.81946
rtoes -15.8018
lfemur -26.5892 46.4651 -11.9492
ltibia 56.2201
lfoot -26.9021 27.7158
ltoes 13.9013
2049
root 11.4334 16.4873 -3.34231 185.047 -87.1604 -181.905
lowerback 18.595 -2.59376 -13.9436
upperback 11.7823 -6.43645 -1.4904
thorax 3.96019 -4.45187 7.0238
lowerneck -11.3572 18.6851 0.362337
upperneck -9.65877 23.9659 -30.5538
head 3.08521 11.5083 -7.24181
rclavicle -3.02153e-014 5.40694e-014
rhumerus 22.1182 32.2637 -83.735
rradius 48.5091
rwrist 21.3386
rhand -20.2799 -3.92445
rfingers 7.12502
rthumb 6.06964 -33.8175
lclavicle -3.02153e-014 5.40694e-014
lhumerus 48.6759 19.1975 129.315
lradius 16.4337
lwrist 40.8329
lhand -5.12965 32.7771
lfingers 7.12502
lthumb 20.6688 421.697
rfemur -36.7928 33.1259 12.4433
rtibia 51.0135
rfoot -18.2643 5.42226
rtoes -16.3495
lfemur -26.4225 46.3621 -11.9194
ltibia 55.749
lfoot -25.7598 28.2177
ltoes 11.6305
2050
root 11.4243 16.4976 -3.35471 187.566 -87.7162 -184.359
lowerback 18.5213 -2.77604 -13.6908
upperback 11.7079 -6.60908 -1.3441
thorax 3.93575 -4.51587 7.06123
lowerneck -11.3016 18.7086 -0.202488
upperneck -9.82034 23.9814 -30.3514
head 2.92038 11.5568 -7.13498
rclavicle 5.725e-014 1.11319e-014
rhumerus 21.8095 33.0405 -83.6518
rradius 48.4619
rwrist 21.0674
rhand -20.2915 -3.78628
rfingers 7.12502
rthumb 6.05835 -33.6797
lclavicle 5.725e-014 1.11319e-014
lhumerus 48.0632 19.5348 128.496
lradius 16.9144
lwrist 41.8122
lhand -5.48693 32.8515
lfingers 7.12502
lthumb 20.3255 421.808
rfemur -36.6409 32.9481 12.3634
rtibia 50.9017
rfoot -18.2901 5.19778
rtoes -16.2032
lfemur -26.5117 46.1275 -12.1673
ltibia 55.2888
lfoot -24.9923 28.4142
ltoes 10.9026
2051
root 11.4144 16.5075 -3.36779 204.463 -88.268 -201.16
lowerback 18.4151 -2.90927 -13.7717
upperback 11.577 -6.76451 -1.44294
thorax 3.87655 -4.57247 7.01238
lowerneck -11.0639 18.7894 0.00938383
upperneck -9.6831 24.1213 -30.0696
head 2.92368 11.6406 -7.07204
rclavicle 7.15625e-015 3.97569e-014
rhumerus 21.3711 33.7015 -83.8142
rradius 48.4405
rwrist 20.5469
rhand -19.7777 -3.82463
rfingers 7.12502
rthumb 6.55439 -33.7032
lclavicle 7.15625e-015 3.97569e-014
lhumerus 47.2141 19.784 127.306
lradius 17.2408
lwrist 42.7281
lhand -5.76258 33.2148
lfingers 7.12502
lthumb 20.0606 422.199
rfemur -36.5257 32.67 11.8635
rtibia 50.7828
rfoot -18.374 5.06371
rtoes -15.921
lfemur -26.5499 45.702 -12.869
ltibia 54.8244
lfoot -25.0319 27.9933
ltoes 11.786
2052
root 11.4037 16.523 -3.38378 224.212 -88.809 -220.991
lowerback 18.4491 -3.01391 -13.6351
upperback 11.485 -6.87394 -1.45335
thorax 3.75655 -4.59842 6.94981
lowerneck -10.4294 18.8154 0.261645
upperneck -9.94091 24.0517 -29.8181
head 2.72485 11.6984 -7.10852
rclavicle 3.4191e-014 2.70347e-014
rhumerus 20.9225 34.5123 -83.9521
rradius 48.3934
rwrist 19.762
rhand -19.3272 -4.07115
rfingers 7.12502
rthumb 6.98928 -33.9358
lclavicle 3.4191e-014 2.70347e-014
lhumerus 46.5876 20.4976 126.77
lradius 17.3071
lwrist 42.9365
lhand -6.01724 33.053
lfingers 7.12502
lthumb 19.8158 422.063
rfemur -36.0962 32.4134 11.9017
rtibia 50.6264
rfoot -18.5057 4.72762
rtoes -15.5419
lfemur -26.2708 45.2793 -12.9636
ltibia 54.3875
lfoot -25.8016 26.9131
ltoes 14.2285
2053
root 11.3882 16.5415 -3.40308 259.509 -89.3214 -256.378
lowerback 18.3032 -3.12263 -13.2594
upperback 11.5567 -6.92485 -1.3093
thorax 3.88682 -4.61736 6.88584
lowerneck -10.026 18.8116 0.325978
upperneck -10.3965 23.9097 -29.8425
head 2.51505 11.7139 -7.20134
rclavicle -8.34896e-014 -7.95139e-014
rhumerus 20.8017 35.321 -83.7605
rradius 48.242
rwrist 19.2124
rhand -19.3025 -4.2942
rfingers 7.12502
rthumb 7.01315 -34.158
lclavicle -8.34896e-014 -7.95139e-014
lhumerus 46.2321 21.1213 126.629
lradius 17.3601
lwrist 42.9828
lhand -6.6412 32.589
lfingers 7.12502
lthumb 19.2159 421.66
rfemur -35.5804 32.2304 12.263
rtibia 50.4259
rfoot -18.506 4.17686
rtoes -15.522
lfemur -26.1165 45.0403 -12.7494
ltibia 53.9828
lfoot -25.6342 26.4024
ltoes 13.1405
2054
root 11.374 16.554 -3.42353 315.462 -88.9998 -312.336
lowerback 18.0722 -3.1969 -12.9691
upperback 11.6564 -6.93311 -1.27873
thorax 4.07977 -4.61939 6.72936
lowerneck -9.63123 18.7904 0.91456
upperneck -10.8007 23.7408 -30.2499
head 2.45054 11.6886 -7.45656
rclavicle 4.92986e-014 -2.8625e-014
rhumerus 20.7063 35.9954 -83.5562
rradius 48.0839
rwrist 18.5432
rhand -19.8005 -4.29235
rfingers 7.12502
rthumb 6.53237 -34.1716
lclavicle 4.92986e-014 -2.8625e-014
lhumerus 45.7152 21.1877 126.063
lradius 17.3314
lwrist 43.3366
lhand -7.34596 32.5865
lfingers 7.12502
lthumb 18.5381 421.723
rfemur -35.2081 32.1026 12.2902
rtibia 50.2136
rfoot -18.4106 3.35387
rtoes -15.521
lfemur -26.152 44.7128 -12.9162
ltibia 53.5709
lfoot -25.0525 26.1899
ltoes 13.2718
